# xmcd
#
# Track frame offsets:
#  150
#  14196
#  26170
#  40171
#  50307
#  62837
#  91274
#  105479
#  115839
#  137442
#  150279
#  164530
#  176529
#  187266
#  199759
#  211515
#  226370
#  228453
#
# Disc length: 3181 seconds
#
# Revision: 0
# Processed by: cddbd v1.5.1PL2 Copyright (c) Steve Scherf et al.
# Submitted via: Collectorz.com_Music_Collector 6.11
#
DISCID=ec0c6b12
DTITLE=Johnny Cash - American Outtakes
DYEAR=2003
DGENRE=Alt Country
TTITLE0=Go Where I Send Thee
TTITLE1=Loving Her Was Easier [take 1]
TTITLE2=Loving Her Was Easier [take 2]
TTITLE3=T For Texas [take 1 Solo Version]
TTITLE4=T For Texas [take 2 Solo Version]
TTITLE5=Down There By The Train [longer Version]
TTITLE6=East Virginia Blue
TTITLE7=What On Earth
TTITLE8=Banks Of The Ohio [featuring June Carter]
TTITLE9=The Wonder Of You
TTITLE10=Bad News
TTITLE11=All Of God's Children Ain't Free
TTITLE12=One More Ride
TTITLE13=Don't Sell Daddy Anymore Whiskey
TTITLE14=The Devil
TTITLE15=I Changed The Lock [take 1]
TTITLE16=I Changed The Lock [take 2]
TTITLE17=That Lucky Old Sun [piano Version]
EXTD=
EXTT0=
EXTT1=
EXTT2=
EXTT3=
EXTT4=
EXTT5=
EXTT6=
EXTT7=
EXTT8=
EXTT9=
EXTT10=
EXTT11=
EXTT12=
EXTT13=
EXTT14=
EXTT15=
EXTT16=
EXTT17=
PLAYORDER=
